<svg xmlns="http://www.w3.org/2000/svg" viewBox="10 39 956 203" xmlns:c2pa="http://c2pa.org/manifest"><metadata><c2pa:manifest>AAAWgmp1bWIAAAAeanVtZGMycGEAEQAQgAAAqgA4m3EDYzJwYQAAABZcanVtYgAAAEdqdW1kYzJtYQARABCAAACqADibcQN1cm46YzJwYTphZTA3NThkNC1hZWQ1LTQzMTctYWU2ZC0yYTlkYWZhNTlmMDMAAAADl2p1bWIAAAApanVtZGMyYXMAEQAQgAAAqgA4m3EDYzJwYS5hc3NlcnRpb25zAAAAALxqdW1iAAAARGp1bWRjYm9yABEAEIAAAKoAOJtxE2MycGEuaW5ncmVkaWVudC52MwAAAAAYYzJzaKlKXpxpkFKPczgcnn9kTaEAAABwY2JvcqNpZGM6Zm9ybWF0bWltYWdlL3N2Zyt4bWxqaW5zdGFuY2VJRHgseG1wOmlpZDpmMzZjMWJiYy1hZGY5LTQ4YWMtODExMC1lY2RiNWVhMDg4N2VscmVsYXRpb25zaGlwaHBhcmVudE9mAAAB4mp1bWIAAABBanVtZGNib3IAEQAQgAAAqgA4m3ETYzJwYS5hY3Rpb25zLnYyAAAAABhjMnNoTHW8ANnJGaafaj/Y5yRYtAAAAZljYm9yomdhY3Rpb25zgqJmYWN0aW9ua2MycGEub3BlbmVkanBhcmFtZXRlcnOha2luZ3JlZGllbnRzgaJjdXJseC1zZWxmI2p1bWJmPWMycGEuYXNzZXJ0aW9ucy9jMnBhLmluZ3JlZGllbnQudjNkaGFzaFggvk1cU87ocIyQJ/hPV164mgRSxzGNweZpFudFpX4xAwKkZmFjdGlvbngdY29tLmFudGhyb3BpYy5jbGF1ZGUucHJvdmlkZWRqcGFyYW1ldGVyc6F4H2NvbS5hbnRocm9waWMub3JpZ2luLWNvbmZpZGVuY2VndW5rbm93bmtkZXNjcmlwdGlvbnhmQ2xhdWRlIHByb3ZpZGVkIHRoaXMgZmlsZSBhdCB0aGUgcmVxdWVzdCBvZiBhIHVzZXIgYW5kIG1heSBoYXZlIGNyZWF0ZWQgb3IgbW9kaWZpZWQgdGhlIGZpbGUgY29udGVudHMubXNvZnR3YXJlQWdlbnShZG5hbWVmQ2xhdWRlcmFsbEFjdGlvbnNJbmNsdWRlZPUAAADIanVtYgAAAEBqdW1kY2JvcgARABCAAACqADibcRNjMnBhLmhhc2guZGF0YQAAAAAYYzJzaDODDNwQeYgDiRRxDUf9TfgAAACAY2JvcqVjYWxnZnNoYTI1NmNwYWRNAAAAAAAAAAAAAAAAAGRoYXNoWCA7G7mEenCPzED5B3WJ4f1Rx5be2aP6cIJm9TRv5CLCS2RuYW1lbmp1bWJmIG1hbmlmZXN0amV4Y2x1c2lvbnOBomVzdGFydBh/Zmxlbmd0aBkeBAAAAj5qdW1iAAAAJ2p1bWRjMmNsABEAEIAAAKoAOJtxA2MycGEuY2xhaW0udjIAAAACD2Nib3KlY2FsZ2ZzaGEyNTZpc2lnbmF0dXJleE1zZWxmI2p1bWJmPS9jMnBhL3VybjpjMnBhOmFlMDc1OGQ0LWFlZDUtNDMxNy1hZTZkLTJhOWRhZmE1OWYwMy9jMnBhLnNpZ25hdHVyZWppbnN0YW5jZUlEeCx4bXA6aWlkOjU3YTBiZjYxLWE0MDUtNDE0MS05MjAyLTBjZmE2ZjQxOGQwMXJjcmVhdGVkX2Fzc2VydGlvbnODomN1cmx4LXNlbGYjanVtYmY9YzJwYS5hc3NlcnRpb25zL2MycGEuaW5ncmVkaWVudC52M2RoYXNoWCC+TVxTzuhwjJAn+E9XXriaBFLHMY3B5mkW50WlfjEDAqJjdXJseCpzZWxmI2p1bWJmPWMycGEuYXNzZXJ0aW9ucy9jMnBhLmFjdGlvbnMudjJkaGFzaFggFFFEjSTflnkaVTM1pLz+fQ8yLddLfoGuiAS/B4/YbXeiY3VybHgpc2VsZiNqdW1iZj1jMnBhLmFzc2VydGlvbnMvYzJwYS5oYXNoLmRhdGFkaGFzaFggyjj2NyhDF+5wYBtWa0rqaFQwdcb793YmJUA+ZptqOmx0Y2xhaW1fZ2VuZXJhdG9yX2luZm+jZG5hbWVvQW50aHJvcGljIEZpbGVzZ3ZlcnNpb25lMS4wLjBrc3BlY1ZlcnNpb25lMi40LjAAABA4anVtYgAAAChqdW1kYzJjcwARABCAAACqADibcQNjMnBhLnNpZ25hdHVyZQAAABAIY2JvctKEWQISogEmGCFZAgowggIGMIIBjaADAgECAhRA5aAK7sI50L64g/oGQgU9Z1UTADAKBggqhkjOPQQDAzBJMRcwFQYDVQQKEw5BbnRocm9waWMsIFBCQzEuMCwGA1UEAxMlQW50aHJvcGljIENvbnRlbnQgQ3JlZGVudGlhbHMgUm9vdCBDQTAeFw0yNjA4MDcxODQzNTZaFw0yODA4MDYxOTQzNTZaMEQxFzAVBgNVBAoTDkFudGhyb3BpYywgUEJDMSkwJwYDVQQDEyBBbnRocm9waWMgQ2xhdWRlIENvbnRlbnQgU2lnbmluZzBZMBMGByqGSM49AgEGCCqGSM49AwEHA0IABJh6CmvLUBgFFNU0vUKlOVtE6djd17L5SuwX0LemFisBM3dkd/3cyjxFA3Qo5S46fX0/ihY0VZ7mfb9KF703t5OjWDBWMA4GA1UdDwEB/wQEAwIHgDAVBgNVHSUEDjAMBgorBgEEAYPoXgIBMAwGA1UdEwEB/wQCMAAwHwYDVR0jBBgwFoAUzlHiBIFOZFsj+OPEz5o+nMHXXMIwCgYIKoZIzj0EAwMDZwAwZAIwMXMdFJ4BetLLVY7ORuE9noqbbAZOZn/aArXyTwFAZfKrPzxF2vPoJNf1+UCdg1XGAjBwX1zd9WGqYkqmL5SFqw1QySjr1zJfpJM9+1rdDwSPLMOPOjKuiXjoU/pUUeG9RwmhY3BhZFkNngAAAAAAAAAAAAAAAAAAAAAAAAAAAAAAAAAAAAAAAAAAAAAAAAAAAAAAAAAAAAAAAAAAAAAAAAAAAAAAAAAAAAAAAAAAAAAAAAAAAAAAAAAAAAAAAAAAAAAAAAAAAAAAAAAAAAAAAAAAAAAAAAAAAAAAAAAAAAAAAAAAAAAAAAAAAAAAAAAAAAAAAAAAAAAAAAAAAAAAAAAAAAAAAAAAAAAAAAAAAAAAAAAAAAAAAAAAAAAAAAAAAAAAAAAAAAAAAAAAAAAAAAAAAAAAAAAAAAAAAAAAAAAAAAAAAAAAAAAAAAAAAAAAAAAAAAAAAAAAAAAAAAAAAAAAAAAAAAAAAAAAAAAAAAAAAAAAAAAAAAAAAAAAAAAAAAAAAAAAAAAAAAAAAAAAAAAAAAAAAAAAAAAAAAAAAAAAAAAAAAAAAAAAAAAAAAAAAAAAAAAAAAAAAAAAAAAAAAAAAAAAAAAAAAAAAAAAAAAAAAAAAAAAAAAAAAAAAAAAAAAAAAAAAAAAAAAAAAAAAAAAAAAAAAAAAAAAAAAAAAAAAAAAAAAAAAAAAAAAAAAAAAAAAAAAAAAAAAAAAAAAAAAAAAAAAAAAAAAAAAAAAAAAAAAAAAAAAAAAAAAAAAAAAAAAAAAAAAAAAAAAAAAAAAAAAAAAAAAAAAAAAAAAAAAAAAAAAAAAAAAAAAAAAAAAAAAAAAAAAAAAAAAAAAAAAAAAAAAAAAAAAAAAAAAAAAAAAAAAAAAAAAAAAAAAAAAAAAAAAAAAAAAAAAAAAAAAAAAAAAAAAAAAAAAAAAAAAAAAAAAAAAAAAAAAAAAAAAAAAAAAAAAAAAAAAAAAAAAAAAAAAAAAAAAAAAAAAAAAAAAAAAAAAAAAAAAAAAAAAAAAAAAAAAAAAAAAAAAAAAAAAAAAAAAAAAAAAAAAAAAAAAAAAAAAAAAAAAAAAAAAAAAAAAAAAAAAAAAAAAAAAAAAAAAAAAAAAAAAAAAAAAAAAAAAAAAAAAAAAAAAAAAAAAAAAAAAAAAAAAAAAAAAAAAAAAAAAAAAAAAAAAAAAAAAAAAAAAAAAAAAAAAAAAAAAAAAAAAAAAAAAAAAAAAAAAAAAAAAAAAAAAAAAAAAAAAAAAAAAAAAAAAAAAAAAAAAAAAAAAAAAAAAAAAAAAAAAAAAAAAAAAAAAAAAAAAAAAAAAAAAAAAAAAAAAAAAAAAAAAAAAAAAAAAAAAAAAAAAAAAAAAAAAAAAAAAAAAAAAAAAAAAAAAAAAAAAAAAAAAAAAAAAAAAAAAAAAAAAAAAAAAAAAAAAAAAAAAAAAAAAAAAAAAAAAAAAAAAAAAAAAAAAAAAAAAAAAAAAAAAAAAAAAAAAAAAAAAAAAAAAAAAAAAAAAAAAAAAAAAAAAAAAAAAAAAAAAAAAAAAAAAAAAAAAAAAAAAAAAAAAAAAAAAAAAAAAAAAAAAAAAAAAAAAAAAAAAAAAAAAAAAAAAAAAAAAAAAAAAAAAAAAAAAAAAAAAAAAAAAAAAAAAAAAAAAAAAAAAAAAAAAAAAAAAAAAAAAAAAAAAAAAAAAAAAAAAAAAAAAAAAAAAAAAAAAAAAAAAAAAAAAAAAAAAAAAAAAAAAAAAAAAAAAAAAAAAAAAAAAAAAAAAAAAAAAAAAAAAAAAAAAAAAAAAAAAAAAAAAAAAAAAAAAAAAAAAAAAAAAAAAAAAAAAAAAAAAAAAAAAAAAAAAAAAAAAAAAAAAAAAAAAAAAAAAAAAAAAAAAAAAAAAAAAAAAAAAAAAAAAAAAAAAAAAAAAAAAAAAAAAAAAAAAAAAAAAAAAAAAAAAAAAAAAAAAAAAAAAAAAAAAAAAAAAAAAAAAAAAAAAAAAAAAAAAAAAAAAAAAAAAAAAAAAAAAAAAAAAAAAAAAAAAAAAAAAAAAAAAAAAAAAAAAAAAAAAAAAAAAAAAAAAAAAAAAAAAAAAAAAAAAAAAAAAAAAAAAAAAAAAAAAAAAAAAAAAAAAAAAAAAAAAAAAAAAAAAAAAAAAAAAAAAAAAAAAAAAAAAAAAAAAAAAAAAAAAAAAAAAAAAAAAAAAAAAAAAAAAAAAAAAAAAAAAAAAAAAAAAAAAAAAAAAAAAAAAAAAAAAAAAAAAAAAAAAAAAAAAAAAAAAAAAAAAAAAAAAAAAAAAAAAAAAAAAAAAAAAAAAAAAAAAAAAAAAAAAAAAAAAAAAAAAAAAAAAAAAAAAAAAAAAAAAAAAAAAAAAAAAAAAAAAAAAAAAAAAAAAAAAAAAAAAAAAAAAAAAAAAAAAAAAAAAAAAAAAAAAAAAAAAAAAAAAAAAAAAAAAAAAAAAAAAAAAAAAAAAAAAAAAAAAAAAAAAAAAAAAAAAAAAAAAAAAAAAAAAAAAAAAAAAAAAAAAAAAAAAAAAAAAAAAAAAAAAAAAAAAAAAAAAAAAAAAAAAAAAAAAAAAAAAAAAAAAAAAAAAAAAAAAAAAAAAAAAAAAAAAAAAAAAAAAAAAAAAAAAAAAAAAAAAAAAAAAAAAAAAAAAAAAAAAAAAAAAAAAAAAAAAAAAAAAAAAAAAAAAAAAAAAAAAAAAAAAAAAAAAAAAAAAAAAAAAAAAAAAAAAAAAAAAAAAAAAAAAAAAAAAAAAAAAAAAAAAAAAAAAAAAAAAAAAAAAAAAAAAAAAAAAAAAAAAAAAAAAAAAAAAAAAAAAAAAAAAAAAAAAAAAAAAAAAAAAAAAAAAAAAAAAAAAAAAAAAAAAAAAAAAAAAAAAAAAAAAAAAAAAAAAAAAAAAAAAAAAAAAAAAAAAAAAAAAAAAAAAAAAAAAAAAAAAAAAAAAAAAAAAAAAAAAAAAAAAAAAAAAAAAAAAAAAAAAAAAAAAAAAAAAAAAAAAAAAAAAAAAAAAAAAAAAAAAAAAAAAAAAAAAAAAAAAAAAAAAAAAAAAAAAAAAAAAAAAAAAAAAAAAAAAAAAAAAAAAAAAAAAAAAAAAAAAAAAAAAAAAAAAAAAAAAAAAAAAAAAAAAAAAAAAAAAAAAAAAAAAAAAAAAAAAAAAAAAAAAAAAAAAAAAAAAAAAAAAAAAAAAAAAAAAAAAAAAAAAAAAAAAAAAAAAAAAAAAAAAAAAAAAAAAAAAAAAAAAAAAAAAAAAAAAAAAAAAAAAAAAAAAAAAAAAAAAAAAAAAAAAAAAAAAAAAAAAAAAAAAAAAAAAAAAAAAAAAAAAAAAAAAAAAAAAAAAAAAAAAAAAAAAAAAAAAAAAAAAAAAAAAAAAAAAAAAAAAAAAAAAAAAAAAAAAAAAAAAAAAAAAAAAAAAAAAAAAAAAAAAAAAAAAAAAAAAAAAAAAAAAAAAAAAAAAAAAAAAAAAAAAAAAAAAAAAAAAAAAAAAAAAAAAAAAAAAAAAAAAAAAAAAAAAAAAAAAAAAAAAAAAAAAAAAAAAAAAAAAAAAAAAAAAAAAAAAAAAAAAAAAAAAAAAAAAAAAAAAAAAAAAAAAAAAAAAAAAAAAAAAAAAAAAAAAAAAAAAAAAAAAAAAAAAAAAAAAAAAAAAAAAAAAAAAAAAAAAAAAAAAAAAAAAAAAAAAAAAAAAAAAAAAAAAAAAAAAAAAAAAAAAAAAAAAAAAAAAAAAAAAAAAAAAAAAAAAAAAAAAAAAAAAAAAAAAAAAAAAAAAAAAAAAAAAAAAAAAAAAAAAAAAAAAAAAAAAAAAAAAAAAAAAAAAAAAAAAAAAAAAAAAAAAAAAAAAAAAAAAAAAAAAAAAAAAAAAAAAAAAAAAAAAAAAAAAAAAAAAAAAAAAAAAAAAAAAAAAAAAAAAAAAAAAAAAAAAAAAAAAAAAAAAAAAAAAAAAAAAAAAAAAAAAAAAAAAAAAAAAAAAAAAAAAAAAAAAAAAAAAAAAAAAAAAAAAAAAAAAAAAAAAAAAAAAAAAAAAAAAAAAAAAAAAAAAAAAAAAAAAAAAAAAAAAAAAAAAAAAAAAAAAAAAAAAAAAAAAAAAAAAAAAAAAAAAAAAAAAAAAAAAAAAAAAAAAAAAAAAAAAAAAAAAAAAAAAAAAAAAAAAAAAAAAAAAAAAAAAAAAAAAAAAAAAAAAAAAAAAAAAAAAAAAAAAAAAAAAAAAAAAAAAAAAAAAAAAAAAAAAAAAAAAAAAAAAAAAAAAAAAAAAAAAAAAAAAAAAAAAAAAAAAAAAAAAAAAAAAAAAAAAAAAAAAAAAAAAAAAAAAAAAAAAAAAAAAAAAAAAAAAAAAAAAAAAAAAAAAAAAAAAAAAAAAAAAAAAAAAAAAAAAAAAAAAAAAAAAAAAAAAAAAAAAAAAAAAAAAAAAAAAAAAAAAAAAAAAAAAAAAAAAAAAAAAAAAAAAAAAAAAAAAAAAAAAAAAAAAAAAAAAAAAAAAAAAAAAAAAAAAAAAAAAAAAAAAAAAAAAAAAAAAAAAAAAAAAAAAAAAAAAAAAAAAAAAAAAAAAAAAAAAAAAAAAAAAAAAAAAAAAAAAAAAAAAAAAAAAAAAAAAAAAAAAAAAAAAAAAAAAAAAAAAAAAAAAAAAAAAAAAAAAAAAAAAAAAAAAAAAAAAAAAAAAAAAAAAAAAAAAAAAAAAAAAAAAAAAAAAAAAAAAAAAAAAAAAAAAAAAAAAAAAAAAAAAAAAAAAAAAAAAAAAAAAAAAAAAAAAAAAAAAAAAAAAAAAAAAAAAAAAAAAAAAAAAAAAAAAAAAAAAAAAAAAAAAAAAAAAPZYQN2YaMEX6QaVgXgnzt0hVzuhaRcXAu4nFzytBlf8rRr86iekuKZoIuxH3BJCFv3nCwBjQyPSGA6oKFr54Q/K4ik=</c2pa:manifest></metadata><defs><clipPath id="glb"><circle cx="112.473" cy="139.211" r="89.76"></circle></clipPath></defs><path fill="#087E83" d="M228.61 49.45L258.26 49.45L258.26 170.63L228.61 170.63Z"></path><path fill="#087E83" d="M283.34 83.35L311.48 83.35L311.48 90.97C311.48 93.85 311.14 96.40 311.14 96.40L311.48 96.40C315.54 89.62 323.85 81.31 339.27 81.31C356.89 81.31 370.62 89.45 370.62 114.02L370.62 170.62L341.30 170.62L341.30 119.44C341.30 111.31 338.08 107.92 331.64 107.92C322.49 107.92 316.90 113.00 314.36 120.46C313.17 123.85 312.66 127.75 312.66 131.98L312.66 170.62L283.34 170.62Z"></path><path fill="#087E83" d="M395.53 107.75L384.34 107.75L384.34 84.87L396.38 84.87L396.38 59.79L424.85 59.79L424.85 84.87L443.15 84.87L443.15 107.75L424.85 107.75L424.85 134.53C424.85 144.36 434.85 145.71 440.44 145.71C442.81 145.71 444.34 145.54 444.34 145.54L444.34 170.96C444.34 170.96 441.12 171.47 436.37 171.47C422.47 171.47 395.53 167.74 395.53 138.42Z"></path><path fill="#087E83" d="M461.45 83.35L489.58 83.35L489.58 98.09C489.58 100.97 489.25 103.51 489.25 103.51L489.58 103.51C493.31 91.65 504.33 81.82 517.38 81.82C519.07 81.82 520.77 82.16 520.77 82.16L520.77 110.97C520.77 110.97 518.39 110.46 514.84 110.46C507.89 110.46 496.53 112.66 492.30 125.71C491.28 128.93 490.77 132.83 490.77 137.58L490.77 170.62L461.45 170.62Z"></path><path fill="#087E83" d="M565.50 150.29C573.13 150.29 579.91 141.98 579.91 134.87L579.91 133.00L577.20 133.00C567.88 133.00 557.20 135.71 557.20 143.00C557.20 147.07 559.74 150.29 565.50 150.29M578.38 116.22L579.57 116.22L579.57 114.70C579.57 107.41 573.98 105.04 566.69 105.04C555.68 105.04 543.13 113.34 543.13 113.34L532.97 92.67C532.97 92.67 548.05 81.31 569.57 81.31C594.15 81.31 608.89 94.70 608.89 116.90L608.89 170.63L582.11 170.63L582.11 165.37C582.11 162.49 582.45 159.95 582.45 159.95L582.11 159.95C582.11 159.95 575.67 172.66 557.37 172.66C541.10 172.66 527.71 161.81 527.71 144.53C527.71 119.11 564.83 116.22 578.38 116.22"></path><path fill="#087E83" d="M671.42 81.31C695.15 81.31 706.17 94.53 706.17 94.53L693.79 114.19C693.79 114.19 685.32 105.72 673.29 105.72C659.39 105.72 652.44 116.22 652.44 126.56C652.44 136.90 659.56 148.25 674.30 148.25C686.51 148.25 698.20 137.75 698.20 137.75L708.88 158.25C708.88 158.25 695.83 172.66 671.42 172.66C640.24 172.66 622.78 150.97 622.78 126.90C622.78 103.51 640.07 81.31 671.42 81.31"></path><path fill="#087E83" d="M765.65 148.25C776.32 148.25 785.48 140.29 785.48 127.24C785.48 114.02 776.32 105.72 765.65 105.72C754.97 105.72 745.82 114.02 745.82 127.24C745.82 140.29 754.97 148.25 765.65 148.25M765.48 81.31C793.10 81.31 815.13 99.78 815.13 127.24C815.13 154.53 793.10 172.66 765.65 172.66C738.19 172.66 716.16 154.53 716.16 127.24C716.16 99.78 738.19 81.31 765.48 81.31"></path><path fill="#087E83" d="M830.38 83.35L858.51 83.35L858.51 90.97C858.51 93.85 858.18 96.40 858.18 96.40L858.51 96.40C862.58 90.29 870.72 81.31 884.44 81.31C895.46 81.31 904.27 86.23 908.85 96.06L909.19 96.06C913.76 88.77 924.10 81.31 937.15 81.31C953.08 81.31 965.45 89.96 965.45 114.02L965.45 170.62L936.13 170.62L936.13 118.94C936.13 112.50 934.95 107.92 929.35 107.92C920.03 107.92 915.12 114.70 913.25 124.36C912.58 127.41 912.58 130.97 912.58 134.53L912.58 170.62L883.26 170.62L883.26 118.94C883.26 112.50 882.07 107.92 876.48 107.92C867.33 107.92 862.58 114.36 860.55 123.68C859.87 126.90 859.70 130.80 859.70 134.53L859.70 170.62L830.38 170.62Z"></path><path fill="#67c4d9" d="M202.23 139.21C202.23 89.64 162.05 49.45 112.47 49.45C62.90 49.45 22.71 89.64 22.71 139.21C22.71 188.78 62.90 228.97 112.47 228.97C162.05 228.97 202.23 188.78 202.23 139.21"></path><path fill="#087E83" clip-path="url(#glb)" d="M83.74 108.71C75.65 108.62 69.16 103.21 69.23 96.63C69.30 90.05 75.92 84.79 84.00 84.88C92.08 84.96 98.58 90.37 98.50 96.95C98.43 103.54 91.82 108.80 83.74 108.71M208.27 75.53C202.26 65.27 133.81 57.30 108.09 71.29C82.37 85.28 66.88 53.74 66.88 53.74L61.05 56.50C70.88 103.97 10.04 141.84 10.04 141.84L22.13 143.42C38.41 132.16 52.14 124.94 65.38 118.65C78.63 112.37 83.74 117.76 86.03 123.74C88.31 129.73 90.90 137.13 101.25 137.40C111.60 137.67 115.28 144.45 114.85 155.43C114.41 166.40 109.35 184.38 103.91 194.20C98.47 204.02 78.80 229.15 78.80 229.15L88.50 231.13C125.81 190.14 129.31 152.76 125.78 131.71C122.24 110.65 111.40 112.73 112.60 102.08C113.80 91.43 121.26 86.33 134.30 84.12C147.34 81.91 169.64 79.81 187.19 80.47C204.75 81.14 214.90 85.01 214.90 85.01Z"></path><g fill="none" stroke="#67c4d9" stroke-width="6.2" stroke-linecap="round" stroke-linejoin="round"><g transform="translate(229.18 189.5)"><path d="M4 36 V14 Q4 3 16 3 H43 M4 18 H39"></path></g><g transform="translate(284.18 189.5)"><rect x="3" y="3" width="47" height="33" rx="12"></rect></g><g transform="translate(345.18 189.5)"><path d="M4 36 V3 H35 Q48 3 48 15 Q48 27 35 27 H4 M30 27 L49 36"></path></g><g transform="translate(405.18 189.5)"><path d="M4 36 V6 Q4 3 7 3 Q9 3 11 6 L27 27 L43 6 Q45 3 48 3 Q51 3 51 6 V36"></path></g><g transform="translate(467.18 189.5)"><path d="M4 36 L20 6 Q22 3 26 3 Q30 3 32 6 L48 36 M11 25 H41"></path></g><g transform="translate(526.18 189.5)"><path d="M48 3 H17 Q3 3 3 17 V22 Q3 36 17 36 H48"></path></g><g transform="translate(585.18 189.5)"><path d="M4 3 V36"></path></g><g transform="translate(602.18 189.5)"><rect x="3" y="3" width="47" height="33" rx="12"></rect><path d="M27 -3 L34 -12"></path></g><g transform="translate(663.18 189.5)"><path d="M4 36 V6 Q4 3 7 3 Q9 3 11 5 L45 35 Q49 39 49 33 V3"></path></g></g></svg>